{"title":"Furry.Vengeance.2010.CAM.XviD-TA","uid":5547068,"size":692307578,"categoryP":"video","categoryS":"movies","magnet":"?xt=urn:btih:37ba036317e9a020755355c5b810e04e2ba3f13f&amp;dn=Furry.Vengeance.2010.CAM.XviD-TA&amp;tr=udp%3A%2F%2Ftracker.openbittorrent.com%3A80&amp;tr=udp%3A%2F%2Fopen.demonii.com%3A1337&amp;tr=udp%3A%2F%2Ftracker.coppersurfer.tk%3A6969&amp;tr=udp%3A%2F%2Fexodus.desync.com%3A6969","seeders":0,"leechers":1,"uploader":"MP3Nova","files":-1,"time":1273413134,"description":" &lt;a href=&quot;http://www.imdb.com/title/tt0492389/&quot; rel=&quot;nofollow&quot; target=&quot;_NEW&quot;&gt;http://www.imdb.com/title/tt0492389/&lt;/a&gt;\n\n\n &lt;a href=&quot;\nhttp://img25.imageshack.us/img25/4508/1z97dd.jpg&quot; rel=&quot;nofollow&quot; target=&quot;_NEW&quot;&gt;\nhttp://img25.imageshack.us/img25/4508/1z97dd.jpg&lt;/a&gt;\n\nPlot:\nIn the Oregon wilderness, a real estate developer's new housing subdivision faces a unique group of protesters, local woodland creatures who don't want their homes disturbed.\n\n\nSource :Our Own (Thanks SLUGGER)\nGeneral\nComplete name : Furry.Vengeance.2010.CAM.XviD-TA.avi\nFormat : AVI\nFormat/Info : Audio Video Interleave\nFile size : 654 MiB\nDuration : 1h 12mn\nOverall bit rate : 1 266 Kbps\nWriting library : VirtualDub build 32661/release\n\nVideo\nID : 0\nFormat : MPEG-4 Visual\nFormat profile : AdvancedSimple@L5\nFormat settings, BVOP : Yes\nFormat settings, QPel : No\nFormat settings, GMC : No warppoints\nFormat settings, Matrix : Default (H.263)\nMuxing mode : Packed bitstream\nCodec ID : XVID\nCodec ID/Hint : XviD\nDuration : 1h 12mn\nBit rate : 1 094 Kbps\nWidth : 480 pixels\nHeight : 320 pixels\nDisplay aspect ratio : 1.500\nFrame rate : 30.000 fps\nResolution : 24 bits\nColorimetry : 4:2:0\nScan type : Progressive\nBits/(Pixel*Frame) : 0.237\nStream size : 565 MiB (86%)\nWriting library : XviD 1.2.1 (UTC 2008-12-04)\n\nAudio\nID : 1\nFormat : MPEG Audio\nFormat version : Version 1\nFormat profile : Layer 3\nCodec ID : 55\nCodec ID/Hint : MP3\nDuration : 1h 12mn\nBit rate mode : Constant\nBit rate : 160 Kbps\nChannel(s) : 2 channels\nSampling rate : 44.1 KHz\nResolution : 16 bits\nStream size : 82.7 MiB (13%)\nAlignment : Split accross interleaves\nInterleave, duration : 33 ms (1.00 video frame)\nInterleave, preload duration : 500 ms\nWriting library : LAME3.97\n\nNotes:\nDid all we could with this one. the source is very distorted. We did out best to chop it up and straighten it out before putting it back together, fixing the ar cropping it.","torrent":{"xt":"urn:btih:37ba036317e9a020755355c5b810e04e2ba3f13f","amp;dn":"Furry.Vengeance.2010.CAM.XviD-TA","amp;tr":["udp%3A%2F%2Ftracker.openbittorrent.com%3A80","udp%3A%2F%2Fopen.demonii.com%3A1337","udp%3A%2F%2Ftracker.coppersurfer.tk%3A6969","udp%3A%2F%2Fexodus.desync.com%3A6969"],"infoHash":"37ba036317e9a020755355c5b810e04e2ba3f13f","infoHashBuffer":{"type":"Buffer","data":[55,186,3,99,23,233,160,32,117,83,85,197,184,16,224,78,43,163,241,63]},"announce":[],"urlList":[]}}